<?xml version="1.0" encoding="utf-8"?>
<!-- Generator: Adobe Illustrator 16.0.0, SVG Export Plug-In . SVG Version: 6.00 Build 0)  -->
<!DOCTYPE svg PUBLIC "-//W3C//DTD SVG 1.1//EN" "http://www.w3.org/Graphics/SVG/1.1/DTD/svg11.dtd">
<svg version="1.1" id="Layer_1" xmlns="http://www.w3.org/2000/svg" xmlns:xlink="http://www.w3.org/1999/xlink" x="0px" y="0px"
	 width="210.336px" height="210.333px" viewBox="0 0 210.336 210.333" enable-background="new 0 0 210.336 210.333"
	 xml:space="preserve">
<path fill-rule="evenodd" clip-rule="evenodd" fill="#FFFFFF" d="M8.558,204.041c1.156-4.243,2.275-8.372,3.406-12.498
	c3.345-12.209,6.692-24.418,10.052-36.623c0.15-0.544,0.026-0.954-0.24-1.426c-5.594-9.914-9.33-20.479-11.164-31.722
	c-1.286-7.88-1.596-15.794-0.92-23.741c0.897-10.546,3.451-20.681,7.718-30.376c5.875-13.347,14.342-24.79,25.373-34.312
	c11.834-10.215,25.374-17.162,40.588-20.788c9.777-2.33,19.686-3.085,29.713-2.288c19.313,1.535,36.637,8.234,51.848,20.208
	c15.139,11.918,25.848,27.048,31.969,45.339c3.801,11.354,5.342,23.043,4.758,35.011c-0.715,14.609-4.551,28.346-11.523,41.191
	c-5.797,10.678-13.367,19.927-22.666,27.757c-10.691,9.004-22.764,15.401-36.227,19.159c-9.393,2.622-18.973,3.778-28.71,3.437
	c-14.938-0.525-29.042-4.25-42.242-11.301c-0.511-0.272-0.951-0.331-1.511-0.185c-16.537,4.356-33.079,8.696-49.62,13.038
	C9.007,203.962,8.851,203.984,8.558,204.041z M31.645,181.191c0.305-0.063,0.436-0.085,0.563-0.118
	c9.216-2.409,18.442-4.783,27.639-7.265c1.492-0.402,2.621-0.249,3.938,0.56c11.043,6.774,23.058,10.618,35.97,11.59
	c7.966,0.6,15.875,0.037,23.652-1.805c18.256-4.321,33.289-13.818,44.928-28.521c10.465-13.222,16.115-28.33,17.061-45.183
	c0.484-8.641-0.43-17.134-2.715-25.475c-3.525-12.866-9.932-24.117-19.092-33.801c-7.33-7.75-15.869-13.821-25.621-18.144
	c-8.928-3.958-18.285-6.163-28.047-6.684c-8.179-0.437-16.234,0.328-24.156,2.365c-12.714,3.27-23.964,9.31-33.711,18.105
	c-9.855,8.893-17.107,19.57-21.658,32.048c-4.416,12.108-5.758,24.571-4.174,37.356c0.814,6.571,2.45,12.931,4.842,19.104
	c2.147,5.543,4.983,10.721,8.188,15.712c0.228,0.354,0.358,0.924,0.252,1.316c-2.297,8.499-4.636,16.987-6.964,25.478
	C32.247,178.903,31.967,179.981,31.645,181.191z"/>
<path fill-rule="evenodd" clip-rule="evenodd" fill="#FFFFFF" d="M130.637,152.395c-4.221,0.086-8.221-0.947-12.174-2.305
	c-5.936-2.037-11.787-4.257-17.272-7.341c-8.902-5.004-16.548-11.565-23.45-19.034c-5.456-5.903-10.341-12.256-14.582-19.08
	c-2.886-4.645-5.101-9.612-6.001-15.053c-1.551-9.378,0.88-17.543,7.534-24.434c2.02-2.092,4.273-3.455,7.24-3.424
	c1.181,0.013,2.361,0.044,3.542,0.068c0.349,0.007,0.7,0.047,1.045,0.018c1.891-0.16,3.268,0.694,4.058,2.319
	c1.087,2.236,2.036,4.54,3.003,6.833c1.861,4.414,3.681,8.845,5.545,13.258c0.581,1.375,0.539,2.671-0.09,4.026
	c-1.484,3.199-3.879,5.699-6.215,8.246c-1.654,1.804-1.81,2.833-0.545,4.958c5.98,10.051,13.751,18.348,24.011,24.11
	c3.049,1.712,6.287,3.099,9.48,4.538c1.721,0.776,2.953,0.473,4.174-0.988c2.541-3.046,5.055-6.118,7.486-9.253
	c1.563-2.016,2.596-2.532,4.957-1.567c3.043,1.245,6.023,2.653,8.996,4.066c3.58,1.703,7.102,3.525,10.688,5.215
	c1.668,0.785,2.404,1.963,2.342,3.797c-0.111,3.331-0.744,6.551-1.963,9.64c-0.703,1.78-1.998,3.173-3.418,4.419
	c-3.203,2.809-6.793,5.013-10.92,6.089c-2.414,0.63-4.959,0.756-7.445,1.108C130.654,152.549,130.645,152.472,130.637,152.395z"/>
</svg>
